<svg xmlns="http://www.w3.org/2000/svg" viewBox="0 0 1745.75 394.12"><defs><style>.cls-1{fill:#1d1d1b;}.cls-2{fill:none;stroke:#fff;stroke-linejoin:bevel;stroke-width:14.39px;}.cls-3{font-size:238.6px;font-family:SourceSansPro-Bold, Source Sans Pro;font-weight:700;letter-spacing:-0.02em;}.cls-4{letter-spacing:0.01em;}.cls-5{letter-spacing:0em;}.cls-6{letter-spacing:0.01em;}</style></defs><title>d1newa</title><g id="Layer_2" data-name="Layer 2"><circle class="cls-1" cx="191.25" cy="202.87" r="191.25"/></g><g id="Layer_1" data-name="Layer 1"><path class="cls-2" d="M264.61,258a78.94,78.94,0,0,0-123.49-17V162a78.95,78.95,0,0,1,123.49,96Z" transform="translate(-7.91 -55.09)"/><path class="cls-2" d="M264.61,258a78.93,78.93,0,0,1-123.49,17v78.95a79,79,0,0,0,123.49-96Z" transform="translate(-7.91 -55.09)"/><text class="cls-3" transform="translate(417.75 198.03)">P<tspan class="cls-4" x="138.62" y="0">addy B</tspan><tspan class="cls-5" x="871.82" y="0">o</tspan><tspan class="cls-6" x="1004.72" y="0">yle</tspan></text><path d="M444.59,342.56H465c16,0,26.84,5.39,26.84,21.05,0,15.05-10.76,22.09-26.4,22.09H453.69v28.36h-9.1Zm19.71,35.76c12.5,0,18.47-4.53,18.47-14.71s-6.34-13.67-18.91-13.67H453.69v28.38Z" transform="translate(-7.91 -55.09)"/><path d="M507.59,342.56H530c14.56,0,25,5.23,25,20.12,0,14.28-10.46,21.16-25,21.16h-13.3v30.22h-9.1Zm21.09,33.9c11.13,0,17.25-4.51,17.25-13.78s-6.12-12.74-17.25-12.74h-12v26.52Zm-.49,4.89,7.13-4.71,21.82,37.42H546.83Z" transform="translate(-7.91 -55.09)"/><path d="M566.77,378.05c0-22.9,12.61-36.8,30.56-36.8s30.57,13.94,30.57,36.8-12.61,37.32-30.57,37.32S566.77,401,566.77,378.05Zm51.73,0c0-17.81-8.4-28.8-21.17-28.8s-21.16,11-21.16,28.8,8.4,29.32,21.16,29.32S618.5,395.87,618.5,378.05Z" transform="translate(-7.91 -55.09)"/><path d="M644.59,342.56H665c16,0,26.83,5.39,26.83,21.05,0,15.05-10.76,22.09-26.4,22.09H653.69v28.36h-9.1Zm19.71,35.76c12.51,0,18.47-4.53,18.47-14.71s-6.34-13.67-18.9-13.67H653.69v28.38Z" transform="translate(-7.91 -55.09)"/><path d="M707.6,342.56h41.21v7.7H716.7v22.4h27.09v7.71H716.7v26h33.2v7.7H707.6Z" transform="translate(-7.91 -55.09)"/><path d="M766.31,342.56h22.4c14.56,0,25,5.23,25,20.12,0,14.28-10.46,21.16-25,21.16h-13.3v30.22h-9.1Zm21.09,33.9c11.12,0,17.25-4.51,17.25-13.78s-6.13-12.74-17.25-12.74h-12v26.52Zm-.49,4.89,7.13-4.71,21.82,37.42H805.54Z" transform="translate(-7.91 -55.09)"/><path d="M843,350.26H821.38v-7.7h52.36v7.7H852.11v63.8H843Z" transform="translate(-7.91 -55.09)"/><path d="M897.91,386.35l-21.49-43.79h9.72l9.22,20.19c2.3,5.26,4.45,10.24,6.92,15.59h.44c2.47-5.35,4.94-10.33,7.14-15.59l9.22-20.19h9.42L907,386.35v27.71h-9.1Z" transform="translate(-7.91 -55.09)"/><path d="M961.36,342.56h20.42c16,0,26.83,5.39,26.83,21.05,0,15.05-10.75,22.09-26.4,22.09H970.45v28.36h-9.09Zm19.71,35.76c12.5,0,18.46-4.53,18.46-14.71s-6.34-13.67-18.9-13.67H970.45v28.38Z" transform="translate(-7.91 -55.09)"/><path d="M1024.36,342.56h9.1V372.5h33.25V342.56h9.1v71.5h-9.1V380.45h-33.25v33.61h-9.1Z" transform="translate(-7.91 -55.09)"/><path d="M1092.51,378.05c0-22.9,12.6-36.8,30.56-36.8s30.56,13.94,30.56,36.8-12.6,37.32-30.56,37.32S1092.51,401,1092.51,378.05Zm51.72,0c0-17.81-8.39-28.8-21.16-28.8s-21.16,11-21.16,28.8,8.39,29.32,21.16,29.32S1144.23,395.87,1144.23,378.05Z" transform="translate(-7.91 -55.09)"/><path d="M1182.6,350.26H1161v-7.7h52.36v7.7H1191.7v63.8h-9.1Z" transform="translate(-7.91 -55.09)"/><path d="M1220.67,378.05c0-22.9,12.61-36.8,30.56-36.8s30.57,13.94,30.57,36.8-12.61,37.32-30.57,37.32S1220.67,401,1220.67,378.05Zm51.73,0c0-17.81-8.4-28.8-21.17-28.8s-21.16,11-21.16,28.8,8.4,29.32,21.16,29.32S1272.4,395.87,1272.4,378.05Z" transform="translate(-7.91 -55.09)"/><path d="M1294.34,378.37c0-23.06,13.87-37.12,32.82-37.12a27.77,27.77,0,0,1,20.62,8.82l-5,5.92a20.19,20.19,0,0,0-15.39-6.74c-14.4,0-23.66,11.07-23.66,28.88,0,18,8.5,29.24,23.75,29.24,5.13,0,10.06-1.54,12.89-4.2V384.55h-15.14V377h23.43v30.06c-4.59,4.79-12.43,8.3-22,8.3C1307.77,415.37,1294.34,401.6,1294.34,378.37Z" transform="translate(-7.91 -55.09)"/><path d="M1367,342.56h22.4c14.56,0,25,5.23,25,20.12,0,14.28-10.46,21.16-25,21.16h-13.3v30.22H1367Zm21.09,33.9c11.13,0,17.25-4.51,17.25-13.78s-6.12-12.74-17.25-12.74h-12v26.52Zm-.49,4.89,7.13-4.71,21.82,37.42h-10.31Z" transform="translate(-7.91 -55.09)"/><path d="M1444.61,342.56h10.27l24.19,71.5h-9.64L1457,374.13c-2.57-8-4.86-15.85-7.15-24.1h-.44c-2.21,8.29-4.51,16.1-7.08,24.1l-12.6,39.93h-9.26ZM1433.14,385h32.93v7.26h-32.93Z" transform="translate(-7.91 -55.09)"/><path d="M1490,342.56h20.42c16,0,26.84,5.39,26.84,21.05,0,15.05-10.76,22.09-26.4,22.09H1499.1v28.36H1490Zm19.71,35.76c12.5,0,18.47-4.53,18.47-14.71s-6.34-13.67-18.91-13.67H1499.1v28.38Z" transform="translate(-7.91 -55.09)"/><path d="M1553,342.56h9.1V372.5h33.26V342.56h9.1v71.5h-9.1V380.45H1562.1v33.61H1553Z" transform="translate(-7.91 -55.09)"/><path d="M1625.31,342.56h41.21v7.7h-32.11v22.4h27.09v7.71h-27.09v26h33.2v7.7h-42.3Z" transform="translate(-7.91 -55.09)"/><path d="M1684,342.56h22.4c14.56,0,25,5.23,25,20.12,0,14.28-10.46,21.16-25,21.16h-13.3v30.22H1684Zm21.09,33.9c11.12,0,17.25-4.51,17.25-13.78s-6.13-12.74-17.25-12.74h-12v26.52Zm-.49,4.89,7.13-4.71,21.82,37.42h-10.32Z" transform="translate(-7.91 -55.09)"/></g></svg>