<svg id="Capa_1" data-name="Capa 1" xmlns="http://www.w3.org/2000/svg" viewBox="0 0 26 26"><defs><style>.cls-1{fill:#fff;}.cls-2{fill:#104f55;}</style></defs><title>facebook2</title><rect class="cls-1" x="2.29" y="1.8" width="21.42" height="22.17"/><path class="cls-2" d="M23.82,0H2.18A2.19,2.19,0,0,0,0,2.18V23.82A2.19,2.19,0,0,0,2.18,26H23.82A2.19,2.19,0,0,0,26,23.82V2.18A2.19,2.19,0,0,0,23.82,0ZM20.46,14H18v9H14V14H12.39V11H14V9c0-2.54,1-4,4-4h3V8H19.27C18.11,8,18,8.46,18,9.27V11H20.8Z" transform="translate(0 0)"/></svg>