<svg id="Capa_1" data-name="Capa 1" xmlns="http://www.w3.org/2000/svg" viewBox="0 0 478.17 478.16"><defs><style>.cls-1{fill:#fff;}.cls-2{fill:#104f55;}</style></defs><title>linkedin2</title><rect class="cls-1" x="29.97" y="29.96" width="418.23" height="418.23"/><path id="LinkedIn_alt_" data-name="LinkedIn (alt)" class="cls-2" d="M256.77,215.71h.42V215A1.35,1.35,0,0,0,256.77,215.71Zm0,0h.42V215A1.35,1.35,0,0,0,256.77,215.71Zm0,0h.42V215A1.35,1.35,0,0,0,256.77,215.71Z" transform="translate(0 0)"/><path class="cls-2" d="M0,0V478.16H478.17V0ZM145,400.24H72.78V184.41H145ZM108.84,155h-.48c-24.24,0-39.92-16.69-39.92-37.33,0-21.22,16.16-37.34,40.86-37.34s39.93,16.12,40.39,37.34C149.71,138.27,134,155,108.84,155ZM405.38,400.24H333.3V284.81c0-29-10.6-49-36.74-49-20.06,0-31.8,13.43-37,26.46-1.89,4.42-2.39,10.9-2.39,17.39V400.24H185s.92-195.63,0-215.83h72.26V215c9.49-14.68,26.66-35.7,65-35.7,47.58,0,83.16,30.86,83.16,97.17Z" transform="translate(0 0)"/></svg>