<svg id="Capa_1" data-name="Capa 1" xmlns="http://www.w3.org/2000/svg" viewBox="0 0 478.17 478.17"><defs><style>.cls-1{fill:#104f55;}.cls-2{fill:#fff;}</style></defs><title>linkedin1</title><rect class="cls-1" width="478.17" height="478.17"/><path id="LinkedIn_alt_" data-name="LinkedIn (alt)" class="cls-2" d="M442.78,0H35.42C15.86,0,0,15.4,0,34.29V444c0,18.82,15.86,34.19,35.42,34.19H442.76c19.59,0,35.41-15.37,35.41-34.19V34.29C478.17,15.4,462.35,0,442.78,0ZM145,400.24H72.78V184.41H145V400.24ZM108.84,155h-.48c-24.24,0-39.92-16.7-39.92-37.34,0-21.22,16.16-37.34,40.86-37.34s39.93,16.12,40.39,37.34C149.71,138.27,134,155,108.84,155ZM405.38,400.24H333.3V284.81c0-29-10.6-48.95-36.74-48.95-20.06,0-31.8,13.42-37,26.45-1.89,4.43-2.39,10.9-2.39,17.4V400.24H185s.92-195.63,0-215.83h72.26V215c9.49-14.68,26.66-35.7,65-35.7,47.58,0,83.16,30.86,83.16,97.17V400.24ZM256.77,215.71a1.29,1.29,0,0,1,.42-.67v.67Z"/></svg>