<?xml version="1.0" encoding="utf-8"?>
<!-- Generator: Adobe Illustrator 22.1.0, SVG Export Plug-In . SVG Version: 6.00 Build 0)  -->
<svg version="1.1" id="Layer_1" xmlns="http://www.w3.org/2000/svg" xmlns:xlink="http://www.w3.org/1999/xlink" x="0px" y="0px"
	 viewBox="0 0 300 300" style="enable-background:new 0 0 300 300;" xml:space="preserve">
<style type="text/css">
	.st0{fill:#FFFFFF;}
</style>
<g id="Layer_5">
	<g>
		<rect x="-7" y="-7" class="st0" width="314" height="314"/>
		<path d="M306.5-6.5v313H-6.4v-313H306.5 M307.5-7.5h-315v315.1h315V-7.5L307.5-7.5z"/>
	</g>
</g>
<g id="Layer_3">
	<polygon points="213.2,52.8 67.4,198.5 102.9,198.4 230.8,70.4 	"/>
</g>
<g id="Layer_4">
	<path d="M67.5,198.4l47.4,47.4c24.2,24.2,63.5,24.2,87.7,0s24.2-63.5,0-87.7l-29.7-29.7l-17.7-17.7l-32.5-32.5L105,95.9l33.6,33.6
		 M102.9,198.4L102.9,198.4 M137.9,128.8l47,47c14.4,14.4,14.4,37.9,0,52.3s-37.9,14.4-52.3,0l-29.7-29.7c-11.8,0-23.6,0-35.4,0"/>
</g>
<g id="Layer_2_1_">
	<circle cx="92.3" cy="64.8" r="18"/>
</g>
</svg>
